<svg xmlns="http://www.w3.org/2000/svg" xmlns:xlink="http://www.w3.org/1999/xlink" width="634" height="387.352" viewBox="0 0 634 387.352">
  <defs>
    <linearGradient id="linear-gradient" y1="0.427" x2="1" y2="0.414" gradientUnits="objectBoundingBox">
      <stop offset="0" stop-color="#2face2"/>
      <stop offset="1" stop-color="#0b7fc3"/>
    </linearGradient>
  </defs>
  <g id="logo_dataserve_2" transform="translate(-190 -779.439)">
    <rect id="Rectangle_2" data-name="Rectangle 2" width="634" height="204" rx="26" transform="translate(190 895.099)" fill="url(#linear-gradient)"/>
    <path id="Path_3" data-name="Path 3" d="M-427.039-3.047q-4.951,4.761-14,4.761-10,0-12.187-7.236Q-461.887,1.9-469.6,1.9q-16.567,0-16.567-14.092,0-15.52,32.659-19.043v-8.188q0-9.807-6.855-9.807-7.522,0-7.522,11.426-1.9,1.523-8.665,1.523a8.652,8.652,0,0,1-4.475-1.238,4.751,4.751,0,0,1-2.571-4.094q0-6.284,9.236-10.569a43,43,0,0,1,18.757-4q19.424,0,19.424,14.473,0,5.618-.19,13.14t-.19,15.33v.857q0,6.665,3.809,6.665a6.928,6.928,0,0,0,4-1.238Zm-26.47-8.188V-25.994q-14.568,1.619-14.568,10.95,0,8.188,6,8.188,3.427,0,8.569-4.379Zm71.411,7.9a34.342,34.342,0,0,1-18.186,4.856q-16.853,0-16.853-16.948,0-3.047.1-8V-46.56h-8.569l-.667-.667.381-5.046,8.855-.667V-65.508q-.1-3.142-.1-4.666a119.332,119.332,0,0,0,15.9-4.856l2,.571Q-400-64.556-400-53.13l15.234-.286.762.667-.286,6.189H-400v27.993q0,11.711,8.855,11.711A42.647,42.647,0,0,0-382.764-8Zm64.841.286q-4.951,4.761-14,4.761-10,0-12.187-7.236Q-352.1,1.9-359.817,1.9q-16.567,0-16.567-14.092,0-15.52,32.659-19.043v-8.188q0-9.807-6.855-9.807-7.522,0-7.522,11.426-1.9,1.523-8.665,1.523a8.652,8.652,0,0,1-4.475-1.238,4.751,4.751,0,0,1-2.571-4.094q0-6.284,9.236-10.569a43,43,0,0,1,18.757-4q19.424,0,19.424,14.473,0,5.618-.19,13.14t-.19,15.33v.857q0,6.665,3.809,6.665a6.928,6.928,0,0,0,4-1.238Zm-26.47-8.188V-25.994q-14.568,1.619-14.568,10.95,0,8.188,6,8.188,3.428,0,8.569-4.379Zm155.486-23.8q0,4.666-2.761,4.666H-225.85A23.85,23.85,0,0,0-221.28-15.8a17.561,17.561,0,0,0,14.854,7.236q7.617,0,13.806-6.189l3.333,3.618Q-198.523,1.9-212.424,1.9t-21.709-7.617q-7.808-7.617-7.808-20.281a29.36,29.36,0,0,1,8.712-21.281,28.638,28.638,0,0,1,21.281-8.9q9.712,0,16.377,5.046,7.332,5.713,7.332,15.52Zm-16.187-3.713q0-10.759-9.426-10.759-4.57,0-7.808,4.38a18.932,18.932,0,0,0-3.618,9.045h17.805q3.049,0,3.049-2.668Zm73.22-11.14q0,6.665-7.332,10.474-4.951-4.38-8.188-4.38a8.3,8.3,0,0,0-6.855,3.666,12.688,12.688,0,0,0-2.761,7.76v21.042q0,5.332,3.713,6.665,1.143.381,8.379.667l-.19,4q-3.047,0-10.283-.1t-10.283-.1q-2.571,0-8.855.1t-8.855.1L-183-4q6.379-.571,8.093-2.952,1.428-2,1.428-8.76V-38.086q0-5.427-2-7.046-1.238-1.047-7.046-1.9l-.286-4a248.723,248.723,0,0,0,25.042-5.142l2.095.762a72.848,72.848,0,0,0-.667,11.14q9.807-11.9,17.52-11.9,7.615,0,7.615,6.279Zm69.7-.476q-5.808.762-8.284,3.047Q-71.6-45.7-74.172-39.99L-92.834,1.428l-5.522.381-19.8-42.275q-2.476-5.237-4.285-7.046-2.476-2.38-7.332-2.856l.19-4q2.666,0,9.331.1t9.331.1q2.38,0,8-.1t7.9-.1l.19,4q-6.189.762-6.189,4.189a10.071,10.071,0,0,0,1.143,4.285L-89.6-20.09l9.807-22.09a10.808,10.808,0,0,0,1.143-4q0-3.9-6.284-4.189l.19-4q2.19,0,6.379.1t6.379.1q1.809,0,5.142-.1t5.142-.1Zm58.176,15.33q0,4.666-2.761,4.666H-40.942A23.85,23.85,0,0,0-36.372-15.8,17.561,17.561,0,0,0-21.519-8.569q7.617,0,13.806-6.189L-4.38-11.14Q-13.616,1.9-27.517,1.9T-49.226-5.713q-7.808-7.617-7.808-20.281a29.36,29.36,0,0,1,8.712-21.281,28.638,28.638,0,0,1,21.281-8.9q9.712,0,16.377,5.046,7.332,5.713,7.332,15.52Zm-16.187-3.713q0-10.759-9.426-10.759-4.57,0-7.808,4.38a18.932,18.932,0,0,0-3.618,9.045h17.805q3.047,0,3.047-2.669Z" transform="translate(805 870.755)" fill="#28252b"/>
    <path id="Path_4" data-name="Path 4" d="M-4.285-25.137q0,13.235-11.045,20.662Q-24.851,1.9-38.372,1.9-47.8,1.9-61.794-2a161.113,161.113,0,0,0-4.189-23.613l5.332-.952q4.285,11.235,8.76,15.806,6,6.094,16.377,6.094,14,0,14-15.806,0-6.284-5.713-10.854-3.428-2.761-12.473-6.76Q-51.8-43.513-57.034-48.56q-8-7.808-8-20,0-12.854,10.759-19.424,8.855-5.332,22.09-5.332A94.284,94.284,0,0,1-9.521-89.978q-.857,9.141-.857,21.614l-5.332.381q-1.619-18.948-19.71-18.948-12.568,0-12.568,13.9a12.6,12.6,0,0,0,5.427,10.664q2.19,1.714,12.378,6.379,12.949,5.9,18,10.854Q-4.285-37.515-4.285-25.137Z" transform="translate(558 872.755)" fill="#0f81c5"/>
    <path id="Path_5" data-name="Path 5" d="M-4.285-49.7q0,23.518-16.472,37.61Q-36.277,1.05-59.795,1.05q-3.523,0-11.093-.619T-81.98-.19q-2.761,0-9.855.1t-9.855.1l-.286-4q7.9-.571,10.188-2.714t2.285-9.474V-78.552q0-6.094-3.713-7.712-1.809-.857-9.045-1.143l.19-4q3.142,0,10.854.1t10.854.1q3.428,0,10.95-.524t10.95-.524q23.708,0,37.8,9.521Q-4.285-71.7-4.285-49.7Zm-20.947,2.95q0-39.229-33.992-39.229a28.264,28.264,0,0,0-7.046,1.047Q-71.6-83.6-71.6-81.5v63.318q0,7.522,2.333,10.14t9.379,2.618Q-25.232-5.427-25.232-46.75Z" transform="translate(316 872.755)" fill="#0f81c5"/>
    <path id="Path_1" data-name="Path 1" d="M-586.967,0l-9.2-30.076h5.268l4.786,17.36,1.784,6.457q.113-.481,1.558-6.2l4.786-17.615h5.239l4.5,17.445,1.5,5.749,1.728-5.806,5.154-17.389h4.956L-564.311,0h-5.3L-574.4-18.012l-1.161-5.126L-581.643,0Zm41.886,0-9.2-30.076h5.268l4.786,17.36,1.784,6.457q.113-.481,1.558-6.2l4.786-17.615h5.239l4.5,17.445,1.5,5.749,1.728-5.806,5.154-17.389h4.956L-522.425,0h-5.3l-4.786-18.012-1.161-5.126L-539.757,0ZM-503.2,0l-9.2-30.076h5.268l4.786,17.36,1.784,6.457q.113-.481,1.558-6.2l4.786-17.615h5.239l4.5,17.445,1.5,5.749,1.728-5.806,5.154-17.389h4.956L-480.539,0h-5.3l-4.786-18.012-1.161-5.126L-497.871,0Zm34.579,0V-5.806h5.806V0Zm34.183,0V-3.8A9.355,9.355,0,0,1-442.845.68a11.794,11.794,0,0,1-6.613-1.98,13.037,13.037,0,0,1-4.673-5.537,19.136,19.136,0,0,1-1.657-8.17,21.384,21.384,0,0,1,1.5-8.17,11.838,11.838,0,0,1,4.5-5.622,12.039,12.039,0,0,1,6.712-1.954,10.029,10.029,0,0,1,4.843,1.147,10.125,10.125,0,0,1,3.455,2.988v-14.9h5.069V0Zm-16.114-15.01q0,5.777,2.436,8.638a7.344,7.344,0,0,0,5.749,2.86,7.209,7.209,0,0,0,5.678-2.733q2.336-2.733,2.336-8.34,0-6.174-2.379-9.062a7.317,7.317,0,0,0-5.862-2.889,7.063,7.063,0,0,0-5.678,2.775q-2.276,2.776-2.276,8.751Zm48.484,11.3a18.982,18.982,0,0,1-5.452,3.4,15.753,15.753,0,0,1-5.622.991q-4.956,0-7.618-2.421a7.992,7.992,0,0,1-2.662-6.188,8.23,8.23,0,0,1,1.005-4.036,8.323,8.323,0,0,1,2.634-2.931,12.385,12.385,0,0,1,3.667-1.671,36.426,36.426,0,0,1,4.531-.765,46.594,46.594,0,0,0,9.091-1.756q.028-1.048.028-1.331,0-3.115-1.444-4.39-1.954-1.728-5.806-1.728a9,9,0,0,0-5.31,1.26,7.7,7.7,0,0,0-2.535,4.46l-4.984-.68a12.35,12.35,0,0,1,2.237-5.168,9.807,9.807,0,0,1,4.5-3.03,20.085,20.085,0,0,1,6.825-1.062,18.065,18.065,0,0,1,6.259.906,8.247,8.247,0,0,1,3.54,2.28A8.018,8.018,0,0,1-397.6-24.1a28.705,28.705,0,0,1,.255,4.7v6.8a72.142,72.142,0,0,0,.326,8.992A11.345,11.345,0,0,0-395.72,0h-5.324a10.807,10.807,0,0,1-1.019-3.71Zm-.425-11.385a37.4,37.4,0,0,1-8.326,1.926,19.259,19.259,0,0,0-4.446,1.02,4.432,4.432,0,0,0-2.011,1.657,4.352,4.352,0,0,0-.708,2.421,4.341,4.341,0,0,0,1.543,3.4,6.641,6.641,0,0,0,4.517,1.359A10.513,10.513,0,0,0-406.68-4.6a7.935,7.935,0,0,0,3.37-3.526,12.314,12.314,0,0,0,.821-5.1ZM-378.3-4.56l.736,4.5a18.909,18.909,0,0,1-3.854.46,8.72,8.72,0,0,1-4.3-.878,4.916,4.916,0,0,1-2.152-2.308q-.623-1.43-.623-6.018V-26.1h-3.738v-3.965h3.738v-7.448l5.069-3.059v10.507h5.126V-26.1h-5.126v17.58a8.885,8.885,0,0,0,.269,2.8,2.123,2.123,0,0,0,.878.991,3.391,3.391,0,0,0,1.742.368A16.583,16.583,0,0,0-378.3-4.56Zm24.61.85a18.982,18.982,0,0,1-5.452,3.4,15.753,15.753,0,0,1-5.622.991q-4.956,0-7.618-2.421a7.992,7.992,0,0,1-2.662-6.188,8.23,8.23,0,0,1,1-4.036,8.323,8.323,0,0,1,2.634-2.931,12.385,12.385,0,0,1,3.667-1.671,36.425,36.425,0,0,1,4.531-.765,46.594,46.594,0,0,0,9.091-1.756q.028-1.048.028-1.331,0-3.115-1.444-4.39-1.954-1.728-5.806-1.728a9,9,0,0,0-5.31,1.26,7.7,7.7,0,0,0-2.535,4.46l-4.984-.68a12.35,12.35,0,0,1,2.237-5.168,9.807,9.807,0,0,1,4.5-3.03,20.085,20.085,0,0,1,6.825-1.062,18.065,18.065,0,0,1,6.259.906,8.247,8.247,0,0,1,3.54,2.28A8.018,8.018,0,0,1-349.22-24.1a28.705,28.705,0,0,1,.255,4.7v6.8a72.131,72.131,0,0,0,.326,8.992A11.344,11.344,0,0,0-347.349,0h-5.324a10.807,10.807,0,0,1-1.019-3.71Zm-.425-11.385a37.4,37.4,0,0,1-8.326,1.926,19.259,19.259,0,0,0-4.446,1.02,4.432,4.432,0,0,0-2.011,1.657,4.352,4.352,0,0,0-.708,2.421,4.341,4.341,0,0,0,1.543,3.4,6.641,6.641,0,0,0,4.517,1.359A10.513,10.513,0,0,0-358.309-4.6a7.935,7.935,0,0,0,3.37-3.526,12.314,12.314,0,0,0,.821-5.1ZM-343.1-8.978l5.041-.793a7.046,7.046,0,0,0,2.365,4.645,8.242,8.242,0,0,0,5.423,1.614,7.968,7.968,0,0,0,5.211-1.43,4.277,4.277,0,0,0,1.7-3.356,3.1,3.1,0,0,0-1.5-2.719,22.109,22.109,0,0,0-5.211-1.728,47.552,47.552,0,0,1-7.774-2.45,7.53,7.53,0,0,1-3.285-2.86,7.578,7.578,0,0,1-1.119-4.036,7.746,7.746,0,0,1,.92-3.724,8.253,8.253,0,0,1,2.506-2.846,10.509,10.509,0,0,1,3.243-1.487,15.42,15.42,0,0,1,4.4-.609,17.408,17.408,0,0,1,6.216,1.02,8.455,8.455,0,0,1,3.951,2.761,10.79,10.79,0,0,1,1.756,4.659l-4.984.68a5.452,5.452,0,0,0-1.968-3.625,7.2,7.2,0,0,0-4.6-1.3q-3.512,0-5.013,1.161a3.38,3.38,0,0,0-1.5,2.719A2.814,2.814,0,0,0-336.7-20.9a4.5,4.5,0,0,0,1.954,1.359q.765.283,4.5,1.3a62.687,62.687,0,0,1,7.547,2.365A7.657,7.657,0,0,1-319.34-13.2a7.47,7.47,0,0,1,1.218,4.361,8.558,8.558,0,0,1-1.487,4.8A9.61,9.61,0,0,1-323.9-.552,15.617,15.617,0,0,1-330.243.68q-5.862,0-8.935-2.436A11.326,11.326,0,0,1-343.1-8.978Zm51.628-.708,5.268.651A12.852,12.852,0,0,1-290.82-1.87,13.878,13.878,0,0,1-299.431.68q-6.6,0-10.464-4.064t-3.866-11.4q0-7.59,3.908-11.781a13.229,13.229,0,0,1,10.139-4.191,12.858,12.858,0,0,1,9.855,4.106q3.823,4.106,3.823,11.555,0,.453-.028,1.359h-22.43q.283,4.956,2.8,7.59A8.345,8.345,0,0,0-299.4-3.512a7.8,7.8,0,0,0,4.786-1.473,9.775,9.775,0,0,0,3.141-4.7Zm-16.737-8.241h16.794a10.189,10.189,0,0,0-1.926-5.692,7.813,7.813,0,0,0-6.315-2.945,8.1,8.1,0,0,0-5.9,2.351,9.3,9.3,0,0,0-2.654,6.286ZM-279.861,0V-30.076h4.588v4.56a12.442,12.442,0,0,1,3.243-4.22,5.66,5.66,0,0,1,3.271-1.02,9.943,9.943,0,0,1,5.239,1.643l-1.756,4.729a7.294,7.294,0,0,0-3.738-1.1,4.855,4.855,0,0,0-3,1.005,5.446,5.446,0,0,0-1.9,2.79,19.857,19.857,0,0,0-.85,5.947V0Zm27.726,0-11.441-30.076h5.381l6.457,18.012Q-250.69-9.147-249.812-6q.68-2.379,1.9-5.721l6.684-18.352h5.239L-247.378,0ZM-210.9-9.686l5.268.651a12.852,12.852,0,0,1-4.616,7.165A13.878,13.878,0,0,1-218.859.68q-6.6,0-10.464-4.064t-3.866-11.4q0-7.59,3.908-11.781a13.229,13.229,0,0,1,10.139-4.191,12.858,12.858,0,0,1,9.855,4.106q3.823,4.106,3.823,11.555,0,.453-.028,1.359h-22.43q.283,4.956,2.8,7.59a8.345,8.345,0,0,0,6.287,2.634,7.8,7.8,0,0,0,4.786-1.473,9.776,9.776,0,0,0,3.149-4.7Zm-16.737-8.241h16.794a10.189,10.189,0,0,0-1.926-5.692,7.813,7.813,0,0,0-6.315-2.945,8.1,8.1,0,0,0-5.9,2.351,9.3,9.3,0,0,0-2.655,6.286ZM-197.789,0V-5.806h5.806V0Zm34.3-11.017,5.013.651a13,13,0,0,1-4.206,8.114A12.252,12.252,0,0,1-171,.68a12.913,12.913,0,0,1-9.926-4.036q-3.752-4.036-3.752-11.569a20.935,20.935,0,0,1,1.614-8.524,11.255,11.255,0,0,1,4.914-5.48,14.579,14.579,0,0,1,7.179-1.827,12.48,12.48,0,0,1,8.015,2.478,11.363,11.363,0,0,1,3.993,7.038l-4.956.765a8.23,8.23,0,0,0-2.506-4.56,6.485,6.485,0,0,0-4.347-1.529A7.912,7.912,0,0,0-177.03-23.8q-2.407,2.761-2.407,8.737,0,6.061,2.322,8.808a7.557,7.557,0,0,0,6.061,2.747,7.143,7.143,0,0,0,5.013-1.841,9.135,9.135,0,0,0,2.548-5.668Zm7.477-4.021q0-8.354,4.645-12.376a14,14,0,0,1,9.459-3.342,13.494,13.494,0,0,1,10.139,4.064q3.937,4.064,3.937,11.229,0,5.806-1.742,9.133a12.329,12.329,0,0,1-5.069,5.168A14.759,14.759,0,0,1-141.913.68a13.519,13.519,0,0,1-10.209-4.05q-3.895-4.05-3.9-11.668Zm5.239,0q0,5.777,2.521,8.652a8.079,8.079,0,0,0,6.344,2.875A8.033,8.033,0,0,0-135.6-6.4q2.521-2.889,2.521-8.808,0-5.579-2.535-8.454a8.062,8.062,0,0,0-6.3-2.875,8.1,8.1,0,0,0-6.344,2.86q-2.519,2.862-2.519,8.639ZM-121.862,0V-30.076h4.56v4.22a10.72,10.72,0,0,1,3.767-3.554,10.582,10.582,0,0,1,5.353-1.345,9.894,9.894,0,0,1,5.48,1.388,7.427,7.427,0,0,1,3.016,3.88q3.568-5.268,9.289-5.268,4.475,0,6.882,2.478t2.407,7.632V0h-5.069V-18.946a13.95,13.95,0,0,0-.5-4.4,4.266,4.266,0,0,0-1.8-2.167,5.614,5.614,0,0,0-3.059-.821,7.118,7.118,0,0,0-5.268,2.11q-2.1,2.11-2.1,6.754V0H-104V-19.541a8.6,8.6,0,0,0-1.246-5.1,4.719,4.719,0,0,0-4.078-1.7,7.408,7.408,0,0,0-3.979,1.133,6.426,6.426,0,0,0-2.648,3.313,18.652,18.652,0,0,0-.821,6.287V0ZM-72.1,0V-5.806h5.8V0Zm12.631-8.978,5.041-.793a7.046,7.046,0,0,0,2.365,4.645A8.242,8.242,0,0,0-46.64-3.512a7.968,7.968,0,0,0,5.211-1.43,4.277,4.277,0,0,0,1.7-3.356,3.1,3.1,0,0,0-1.5-2.719,22.109,22.109,0,0,0-5.211-1.728,47.551,47.551,0,0,1-7.774-2.45,7.53,7.53,0,0,1-3.285-2.86,7.577,7.577,0,0,1-1.119-4.036,7.746,7.746,0,0,1,.92-3.724,8.253,8.253,0,0,1,2.5-2.845,10.508,10.508,0,0,1,3.243-1.487,15.42,15.42,0,0,1,4.4-.609,17.407,17.407,0,0,1,6.216,1.02,8.455,8.455,0,0,1,3.951,2.761,10.79,10.79,0,0,1,1.756,4.659l-4.984.68a5.452,5.452,0,0,0-1.968-3.625,7.2,7.2,0,0,0-4.6-1.3q-3.512,0-5.013,1.161a3.38,3.38,0,0,0-1.5,2.719,2.814,2.814,0,0,0,.623,1.784,4.5,4.5,0,0,0,1.954,1.359q.765.283,4.5,1.3a62.685,62.685,0,0,1,7.547,2.365A7.657,7.657,0,0,1-35.712-13.2a7.47,7.47,0,0,1,1.218,4.361,8.559,8.559,0,0,1-1.487,4.8,9.61,9.61,0,0,1-4.29,3.487A15.617,15.617,0,0,1-46.615.68q-5.862,0-8.935-2.436a11.326,11.326,0,0,1-3.923-7.222ZM-8.808-3.71A18.982,18.982,0,0,1-14.26-.31a15.753,15.753,0,0,1-5.621.99q-4.956,0-7.618-2.421A7.992,7.992,0,0,1-30.161-7.93a8.23,8.23,0,0,1,1.005-4.036A8.323,8.323,0,0,1-26.522-14.9a12.385,12.385,0,0,1,3.667-1.671,36.425,36.425,0,0,1,4.531-.765,46.594,46.594,0,0,0,9.091-1.756q.028-1.048.028-1.331,0-3.115-1.444-4.39-1.954-1.728-5.806-1.728a9,9,0,0,0-5.31,1.26,7.7,7.7,0,0,0-2.535,4.46l-4.984-.68a12.35,12.35,0,0,1,2.237-5.168,9.807,9.807,0,0,1,4.5-3.03,20.085,20.085,0,0,1,6.825-1.062,18.065,18.065,0,0,1,6.259.906,8.247,8.247,0,0,1,3.54,2.28A8.018,8.018,0,0,1-4.333-24.1a28.7,28.7,0,0,1,.255,4.7v6.8a72.144,72.144,0,0,0,.326,8.992A11.344,11.344,0,0,0-2.464,0H-7.788a10.808,10.808,0,0,1-1.02-3.71ZM-9.233-15.1a37.4,37.4,0,0,1-8.326,1.926A19.259,19.259,0,0,0-22-12.149a4.432,4.432,0,0,0-2.011,1.657,4.353,4.353,0,0,0-.708,2.421,4.341,4.341,0,0,0,1.543,3.4,6.641,6.641,0,0,0,4.517,1.359A10.513,10.513,0,0,0-13.424-4.6a7.935,7.935,0,0,0,3.37-3.526,12.314,12.314,0,0,0,.821-5.1Z" transform="translate(805 1166.099)" fill="#28252b"/>
    <path id="Path_2" data-name="Path 2" d="M-406.35-9.03a59.678,59.678,0,0,1-3.29-10.449,46.142,46.142,0,0,1-1.1-9.546,29.794,29.794,0,0,1,1.871-10.707,21.9,21.9,0,0,1,5.74-8.45,27.818,27.818,0,0,1,9.8-5.611,42.892,42.892,0,0,1,14.061-2.064q5.934,0,10.578.387t8.9.645V0h-93.267Q-461.3,0-466.4-4.063T-471.5-17.8V-43.215h10.836V-19.35A14.29,14.29,0,0,0-458.913-12q1.746,2.967,7.436,2.967Zm35.733,0v-37.8q-1.161-.129-2.451-.258t-2.322-.129q-11.868,0-18,4.064t-6.128,14a53.255,53.255,0,0,0,.71,6.966,60.4,60.4,0,0,0,4.2,13.157Zm-18.189-62.952a6.589,6.589,0,0,1,2-4.838,6.59,6.59,0,0,1,4.837-2,6.59,6.59,0,0,1,4.838,2,6.59,6.59,0,0,1,2,4.838,6.59,6.59,0,0,1-2,4.838,6.59,6.59,0,0,1-4.838,2,6.59,6.59,0,0,1-4.837-2A6.589,6.589,0,0,1-388.806-71.982Zm54.567,17.157H-323.4v45.8h11.959a8.38,8.38,0,0,1,3.9.709q1.3.71,1.3,3.418,0,3.225-1.235,4.064A7.23,7.23,0,0,1-311.444,0h-12.088a41.734,41.734,0,0,1-1.419,9.159,17.687,17.687,0,0,1-3.8,7.1,17.557,17.557,0,0,1-7.16,4.644,32.492,32.492,0,0,1-11.223,1.677h-2.322v-9.03h1.431q7.935,0,10.863-3.741t2.928-12ZM-312.825,0a6.768,6.768,0,0,1-3.87-.9q-1.29-.9-1.29-3.612,0-3.225,1.225-3.87a8.921,8.921,0,0,1,3.935-.645h9.03q5.289,0,6.837-2.387t1.548-7.8v-35.6h10.836V-13.4a2.637,2.637,0,0,0,.9,2,6.863,6.863,0,0,0,2.258,1.354,15.114,15.114,0,0,0,2.9.774,16.752,16.752,0,0,0,2.709.258h3.354a8.265,8.265,0,0,1,3.87.709q1.29.71,1.29,3.418,0,3.225-1.226,4.064A7.133,7.133,0,0,1-272.448,0h-2.322a16.949,16.949,0,0,1-6.643-1.226,11.272,11.272,0,0,1-4.966-4.322,14.171,14.171,0,0,1-4.9,3.806Q-294.636,0-301.344,0Zm6.966,16.254a6.59,6.59,0,0,1,2-4.837,6.59,6.59,0,0,1,4.837-2,6.59,6.59,0,0,1,4.837,2,6.59,6.59,0,0,1,2,4.837,6.59,6.59,0,0,1-2,4.838,6.59,6.59,0,0,1-4.837,2,6.59,6.59,0,0,1-4.837-2A6.59,6.59,0,0,1-305.859,16.254Zm16.77,0a6.59,6.59,0,0,1,2-4.837,6.59,6.59,0,0,1,4.837-2,6.59,6.59,0,0,1,4.837,2,6.59,6.59,0,0,1,2,4.837,6.59,6.59,0,0,1-2,4.838,6.59,6.59,0,0,1-4.837,2,6.59,6.59,0,0,1-4.837-2A6.59,6.59,0,0,1-289.089,16.254ZM-273.609,0a6.768,6.768,0,0,1-3.87-.9q-1.29-.9-1.29-3.612,0-3.225,1.225-3.87a8.921,8.921,0,0,1,3.935-.645h22.575V-43.215H-240.2V-9.03h22.962V-43.215H-206.4V-9.03h21.93v-45.8h10.836V0Zm146.544-4.9q0,3.225-1.29,4.064a7.487,7.487,0,0,1-4,.839h-4.9q-8.256,0-13.287-4.063t-5.032-13.74V-93.267h10.836V-19.35q0,5.031,1.677,7.675t7.353,2.645h3.354a8.687,8.687,0,0,1,3.934.709Q-127.065-7.611-127.065-4.9ZM-133.644,0a6.768,6.768,0,0,1-3.87-.9q-1.29-.9-1.29-3.612,0-4.515,5.16-4.515h16.125v-45.8h10.836V0Zm6.063-71.982a6.59,6.59,0,0,1,2-4.838,6.59,6.59,0,0,1,4.838-2,6.59,6.59,0,0,1,4.838,2,6.59,6.59,0,0,1,2,4.838,6.59,6.59,0,0,1-2,4.838,6.59,6.59,0,0,1-4.838,2,6.59,6.59,0,0,1-4.838-2,6.59,6.59,0,0,1-2-4.838Zm16.77,0a6.59,6.59,0,0,1,2-4.838,6.59,6.59,0,0,1,4.837-2,6.59,6.59,0,0,1,4.838,2,6.59,6.59,0,0,1,2,4.838,6.59,6.59,0,0,1-2,4.838,6.59,6.59,0,0,1-4.838,2,6.59,6.59,0,0,1-4.837-2,6.59,6.59,0,0,1-2-4.838ZM-76.5-93.267V0H-87.333V-93.267Zm22.833,47.085v-8.643h11.1q10.965,0,17.929,2.128a25.237,25.237,0,0,1,10.789,6A20.142,20.142,0,0,1-8.626-37.41a48.447,48.447,0,0,1,1.4,12.126V0H-61.662V-9.03h43.6V-23.091a62.169,62.169,0,0,0-.645-9.288,14.587,14.587,0,0,0-3.161-7.288,16.575,16.575,0,0,0-7.546-4.773q-5.031-1.741-13.932-1.742Z" transform="translate(747 1030.854)" fill="#fff"/>
  </g>
</svg>
